<?xml version="1.0" encoding="UTF-8" standalone="no"?><!DOCTYPE svg PUBLIC "-//W3C//DTD SVG 1.1//EN" "http://www.w3.org/Graphics/SVG/1.1/DTD/svg11.dtd"><svg width="100%" height="100%" viewBox="0 0 859 173" version="1.1" xmlns="http://www.w3.org/2000/svg" xmlns:xlink="http://www.w3.org/1999/xlink" xml:space="preserve" xmlns:serif="http://www.serif.com/" style="fill-rule:evenodd;clip-rule:evenodd;stroke-linecap:round;stroke-linejoin:round;stroke-miterlimit:1.5;"><path d="M237.363,60.215c-0.469,-0.368 -1.106,-0.437 -1.643,-0.176c-0.536,0.261 -0.877,0.804 -0.877,1.4l-0,67.577c0,1.92 -0.763,3.762 -2.12,5.119c-1.358,1.358 -3.199,2.121 -5.119,2.12l-0.004,0c-1.92,0 -3.762,-0.763 -5.119,-2.12c-1.358,-1.358 -2.121,-3.199 -2.121,-5.119l0,-81.243c0,-2.881 2.335,-5.216 5.216,-5.216l6.57,0c1.324,-0 2.607,0.456 3.634,1.291l2.603,2.116l92.52,74.28c0.467,0.375 1.108,0.449 1.648,0.19c0.54,-0.259 0.884,-0.805 0.884,-1.404l-0,-69.294c0,-3.965 3.214,-7.179 7.179,-7.179l0.004,0c3.965,0 7.179,3.214 7.179,7.179l0,81.304c-0,2.881 -2.335,5.216 -5.216,5.216l-6.034,-0c-1.203,-0 -2.38,-0.301 -3.426,-0.865l-0.008,0.011l-0.089,-0.064c-0.37,-0.207 -0.723,-0.448 -1.055,-0.72l-0.459,-0.377l-94.147,-74.025Zm274.706,0.718c-0,-2.15 -1.743,-3.892 -3.892,-3.892l-40.85,0c-1.609,-0 -3.151,-0.639 -4.289,-1.776c-1.137,-1.137 -1.776,-2.68 -1.776,-4.289l-0,-2.353c-0,-1.609 0.639,-3.151 1.776,-4.289c1.137,-1.137 2.68,-1.776 4.289,-1.776l103.969,0c1.609,-0 3.151,0.639 4.289,1.776c1.137,1.137 1.776,2.68 1.776,4.289l0,2.353c0,1.609 -0.639,3.151 -1.776,4.289c-1.137,1.137 -2.68,1.776 -4.289,1.776l-40.85,-0c-2.15,-0 -3.892,1.743 -3.892,3.892l-0,69.258c-0,1.609 -0.639,3.151 -1.776,4.289c-1.137,1.137 -2.68,1.776 -4.289,1.776l-2.353,0c-1.609,0 -3.151,-0.639 -4.289,-1.776c-1.137,-1.137 -1.776,-2.68 -1.776,-4.289l0,-69.258Zm87.017,75.323c-1.921,-0 -3.763,-0.763 -5.121,-2.121c-1.358,-1.358 -2.121,-3.2 -2.121,-5.12l-0,-79.216c-0,-1.921 0.763,-3.762 2.121,-5.12c1.358,-1.358 3.2,-2.121 5.121,-2.121c1.921,0 3.763,0.763 5.121,2.121c1.358,1.358 2.121,3.2 2.121,5.12l0,79.216c0,1.921 -0.763,3.762 -2.121,5.12c-1.358,1.358 -3.2,2.121 -5.121,2.121Zm-173.422,-76.169l-49.542,73.178c-1.266,1.87 -3.378,2.991 -5.637,2.991l-1.398,0c-2.522,-0 -4.837,-1.394 -6.016,-3.623c-1.18,-2.229 -1.03,-4.927 0.387,-7.012l51.619,-75.906c3.045,-4.478 8.109,-7.158 13.524,-7.158l0.545,0c5.32,-0 10.308,2.588 13.372,6.938l53.354,75.762c1.501,2.131 1.689,4.92 0.489,7.233c-1.2,2.313 -3.589,3.765 -6.196,3.765l-0.796,0c-2.271,-0 -4.399,-1.105 -5.707,-2.961l-51.593,-73.267c-0.736,-1.046 -1.939,-1.663 -3.218,-1.651c-1.279,0.012 -2.47,0.651 -3.187,1.71Zm258.53,58.639c0.717,1.059 1.908,1.698 3.187,1.71c1.279,0.012 2.482,-0.605 3.218,-1.651l51.593,-73.267c1.307,-1.857 3.436,-2.961 5.707,-2.961l0.796,0c2.606,0 4.995,1.452 6.196,3.765c1.2,2.313 1.012,5.103 -0.489,7.233l-53.354,75.762c-3.063,4.35 -8.051,6.938 -13.372,6.938l-0.545,0c-5.415,0 -10.479,-2.68 -13.524,-7.158l-51.619,-75.906c-1.418,-2.085 -1.567,-4.783 -0.387,-7.012c1.18,-2.229 3.495,-3.623 6.016,-3.623l1.398,0c2.259,0 4.37,1.12 5.637,2.991l49.542,73.178Zm111.074,-58.639c-0.717,-1.059 -1.908,-1.698 -3.187,-1.71c-1.279,-0.012 -2.482,0.605 -3.218,1.651l-51.593,73.267c-1.307,1.857 -3.436,2.961 -5.707,2.961l-0.796,-0c-2.606,-0 -4.995,-1.452 -6.196,-3.765c-1.2,-2.313 -1.012,-5.103 0.489,-7.233l53.354,-75.762c3.063,-4.35 8.051,-6.938 13.372,-6.938l0.545,-0c5.415,-0 10.479,2.68 13.524,7.158l51.619,75.906c1.418,2.085 1.567,4.783 0.387,7.012c-1.18,2.229 -3.495,3.623 -6.016,3.623l-1.398,-0c-2.259,-0 -4.37,-1.12 -5.637,-2.991l-49.542,-73.178Z" style="fill:#ffc100;"/><g transform="matrix(25.018384,0,0,25.018384,859.853484,171.967796)"></g><text x="619.902px" y="171.968px" style="font-family:'Outfit-Light', 'Outfit';font-weight:300;font-size:25.018px;fill:#fff;">X WEB3C<tspan x="727.306px " y="171.968px ">O</tspan>LLE<tspan x="789.227px 806.089px " y="171.968px 171.968px ">CT</tspan>IVE</text><path d="M61.885,48.529c0.916,0 1.826,0.02 2.732,0.059m20.454,4.438c8.672,3.511 16.369,8.931 22.57,15.739l-32.713,29.765c-0.353,0.321 -0.876,0.371 -1.283,0.123c-0.408,-0.248 -0.603,-0.736 -0.479,-1.197l11.905,-44.43Z" style="fill:#ffc100;"/><path d="M64.617,48.588l-20.098,75.007c-0.911,3.399 -0.434,7.021 1.325,10.068c1.759,3.047 4.657,5.271 8.056,6.182l0.119,0.032c4.361,1.168 9.016,0.021 12.334,-3.04l50.644,-46.715c0.619,-0.571 1.451,-0.851 2.289,-0.772c0.306,0.029 0.602,0.105 0.879,0.223c2.332,6.513 3.602,13.529 3.602,20.84c0,34.155 -27.73,61.885 -61.885,61.885c-34.155,0 -61.885,-27.73 -61.885,-61.885c0,-34.155 27.73,-61.885 61.885,-61.885l2.732,0.059Z" style="fill:#ffc100;"/><path d="M53.901,139.845c-3.399,-0.911 -6.297,-3.134 -8.056,-6.182c-1.759,-3.047 -2.236,-6.669 -1.325,-10.068c7.03,-26.236 22.933,-85.589 29.296,-109.333c1.494,-5.576 7.225,-8.885 12.801,-7.391c0,0 0.001,0 0.001,0c2.678,0.717 4.961,2.469 6.347,4.87c1.386,2.401 1.762,5.254 1.044,7.931c-5.421,20.231 -17.39,64.902 -20.842,77.783c-0.124,0.461 0.072,0.948 0.479,1.197c0.408,0.248 0.93,0.198 1.283,-0.123c6.398,-5.822 22.772,-20.72 34.401,-31.301c3.226,-2.935 7.547,-4.362 11.886,-3.926c4.339,0.436 8.289,2.695 10.866,6.214c11.107,15.168 28.667,39.149 38.417,52.464c1.814,2.478 2.49,5.611 1.857,8.616c-0.633,3.005 -2.514,5.6 -5.174,7.135c-0.21,0.121 -0.419,0.242 -0.626,0.362c-4.01,2.315 -9.119,1.25 -11.87,-2.475c-8.837,-11.965 -27.256,-36.904 -33.294,-45.079c-0.5,-0.677 -1.265,-1.11 -2.103,-1.189c-0.838,-0.08 -1.671,0.201 -2.289,0.772c-8.696,8.022 -38.409,35.429 -50.644,46.715c-3.318,3.061 -7.974,4.208 -12.334,3.04c-0.04,-0.011 -0.079,-0.021 -0.119,-0.032Z" style="fill:none;stroke:#ffc100;stroke-width:8.33px;"/></svg>