<?xml version="1.0" encoding="UTF-8" standalone="no"?><!DOCTYPE svg PUBLIC "-//W3C//DTD SVG 1.1//EN" "http://www.w3.org/Graphics/SVG/1.1/DTD/svg11.dtd"><svg width="100%" height="100%" viewBox="0 0 182 173" version="1.1" xmlns="http://www.w3.org/2000/svg" xmlns:xlink="http://www.w3.org/1999/xlink" xml:space="preserve" xmlns:serif="http://www.serif.com/" style="fill-rule:evenodd;clip-rule:evenodd;stroke-linecap:round;stroke-linejoin:round;stroke-miterlimit:1.5;"><path d="M61.885,48.529c0.916,0 1.826,0.02 2.732,0.059m20.454,4.438c8.672,3.511 16.369,8.931 22.57,15.739l-32.713,29.765c-0.353,0.321 -0.876,0.371 -1.283,0.123c-0.408,-0.248 -0.603,-0.736 -0.479,-1.197l11.905,-44.43Z" style="fill:#ffc100;"/><path d="M64.617,48.588l-20.098,75.007c-0.911,3.399 -0.434,7.021 1.325,10.068c1.759,3.047 4.657,5.271 8.056,6.182l0.119,0.032c4.361,1.168 9.016,0.021 12.334,-3.04l50.644,-46.715c0.619,-0.571 1.451,-0.851 2.289,-0.772c0.306,0.029 0.602,0.105 0.879,0.223c2.332,6.513 3.602,13.529 3.602,20.84c0,34.155 -27.73,61.885 -61.885,61.885c-34.155,0 -61.885,-27.73 -61.885,-61.885c0,-34.155 27.73,-61.885 61.885,-61.885l2.732,0.059Z" style="fill:#ffc100;"/><path d="M53.901,139.845c-3.399,-0.911 -6.297,-3.134 -8.056,-6.182c-1.759,-3.047 -2.236,-6.669 -1.325,-10.068c7.03,-26.236 22.933,-85.589 29.296,-109.333c1.494,-5.576 7.225,-8.885 12.801,-7.391c0,0 0.001,0 0.001,0c2.678,0.717 4.961,2.469 6.347,4.87c1.386,2.401 1.762,5.254 1.044,7.931c-5.421,20.231 -17.39,64.902 -20.842,77.783c-0.124,0.461 0.072,0.948 0.479,1.197c0.408,0.248 0.93,0.198 1.283,-0.123c6.398,-5.822 22.772,-20.72 34.401,-31.301c3.226,-2.935 7.547,-4.362 11.886,-3.926c4.339,0.436 8.289,2.695 10.866,6.214c11.107,15.168 28.667,39.149 38.417,52.464c1.814,2.478 2.49,5.611 1.857,8.616c-0.633,3.005 -2.514,5.6 -5.174,7.135c-0.21,0.121 -0.419,0.242 -0.626,0.362c-4.01,2.315 -9.119,1.25 -11.87,-2.475c-8.837,-11.965 -27.256,-36.904 -33.294,-45.079c-0.5,-0.677 -1.265,-1.11 -2.103,-1.189c-0.838,-0.08 -1.671,0.201 -2.289,0.772c-8.696,8.022 -38.409,35.429 -50.644,46.715c-3.318,3.061 -7.974,4.208 -12.334,3.04c-0.04,-0.011 -0.079,-0.021 -0.119,-0.032Z" style="fill:none;stroke:#ffc100;stroke-width:8.33px;"/></svg>