<?xml version="1.0" encoding="UTF-8" standalone="no"?><!DOCTYPE svg PUBLIC "-//W3C//DTD SVG 1.1//EN" "http://www.w3.org/Graphics/SVG/1.1/DTD/svg11.dtd"><svg width="100%" height="100%" viewBox="0 0 639 130" version="1.1" xmlns="http://www.w3.org/2000/svg" xmlns:xlink="http://www.w3.org/1999/xlink" xml:space="preserve" xmlns:serif="http://www.serif.com/" style="fill-rule:evenodd;clip-rule:evenodd;stroke-linejoin:round;stroke-miterlimit:2;"><path d="M17.003,17.658c-0.469,-0.368 -1.106,-0.437 -1.643,-0.176c-0.536,0.261 -0.877,0.804 -0.877,1.4l-0,67.577c0,1.92 -0.763,3.762 -2.12,5.119c-1.358,1.358 -3.199,2.121 -5.119,2.12l-0.004,0c-1.92,0 -3.762,-0.763 -5.119,-2.12c-1.358,-1.358 -2.121,-3.199 -2.121,-5.119l0,-81.243c0,-2.881 2.335,-5.216 5.216,-5.216l6.57,0c1.324,-0 2.607,0.456 3.634,1.291l2.603,2.116l92.52,74.28c0.467,0.375 1.108,0.449 1.648,0.19c0.54,-0.259 0.884,-0.805 0.884,-1.404l-0,-69.294c0,-3.965 3.214,-7.179 7.179,-7.179l0.004,0c3.965,0 7.179,3.214 7.179,7.179l0,81.304c-0,2.881 -2.335,5.216 -5.216,5.216l-6.034,-0c-1.203,-0 -2.38,-0.301 -3.426,-0.865l-0.008,0.011l-0.089,-0.064c-0.37,-0.207 -0.723,-0.448 -1.055,-0.72l-0.459,-0.377l-94.147,-74.025Zm274.706,0.718c-0,-2.15 -1.743,-3.892 -3.892,-3.892l-40.85,0c-1.609,-0 -3.151,-0.639 -4.289,-1.776c-1.137,-1.137 -1.776,-2.68 -1.776,-4.289l-0,-2.353c-0,-1.609 0.639,-3.151 1.776,-4.289c1.137,-1.137 2.68,-1.776 4.289,-1.776l103.969,0c1.609,-0 3.151,0.639 4.289,1.776c1.137,1.137 1.776,2.68 1.776,4.289l0,2.353c0,1.609 -0.639,3.151 -1.776,4.289c-1.137,1.137 -2.68,1.776 -4.289,1.776l-40.85,-0c-2.15,-0 -3.892,1.743 -3.892,3.892l-0,69.258c-0,1.609 -0.639,3.151 -1.776,4.289c-1.137,1.137 -2.68,1.776 -4.289,1.776l-2.353,0c-1.609,0 -3.151,-0.639 -4.289,-1.776c-1.137,-1.137 -1.776,-2.68 -1.776,-4.289l0,-69.258Zm87.017,75.323c-1.921,-0 -3.763,-0.763 -5.121,-2.121c-1.358,-1.358 -2.121,-3.2 -2.121,-5.12l-0,-79.216c-0,-1.921 0.763,-3.762 2.121,-5.12c1.358,-1.358 3.2,-2.121 5.121,-2.121c1.921,0 3.763,0.763 5.121,2.121c1.358,1.358 2.121,3.2 2.121,5.12l0,79.216c0,1.921 -0.763,3.762 -2.121,5.12c-1.358,1.358 -3.2,2.121 -5.121,2.121Zm-173.422,-76.169l-49.542,73.178c-1.266,1.87 -3.378,2.991 -5.637,2.991l-1.398,0c-2.522,-0 -4.837,-1.394 -6.016,-3.623c-1.18,-2.229 -1.03,-4.927 0.387,-7.012l51.619,-75.906c3.045,-4.478 8.109,-7.158 13.524,-7.158l0.545,0c5.32,-0 10.308,2.588 13.372,6.938l53.354,75.762c1.501,2.131 1.689,4.92 0.489,7.233c-1.2,2.313 -3.589,3.765 -6.196,3.765l-0.796,0c-2.271,-0 -4.399,-1.105 -5.707,-2.961l-51.593,-73.267c-0.736,-1.046 -1.939,-1.663 -3.218,-1.651c-1.279,0.012 -2.47,0.651 -3.187,1.71Zm258.53,58.639c0.717,1.059 1.908,1.698 3.187,1.71c1.279,0.012 2.482,-0.605 3.218,-1.651l51.593,-73.267c1.307,-1.857 3.436,-2.961 5.707,-2.961l0.796,0c2.606,0 4.995,1.452 6.196,3.765c1.2,2.313 1.012,5.103 -0.489,7.233l-53.354,75.762c-3.063,4.35 -8.051,6.938 -13.372,6.938l-0.545,0c-5.415,0 -10.479,-2.68 -13.524,-7.158l-51.619,-75.906c-1.418,-2.085 -1.567,-4.783 -0.387,-7.012c1.18,-2.229 3.495,-3.623 6.016,-3.623l1.398,0c2.259,0 4.37,1.12 5.637,2.991l49.542,73.178Zm111.074,-58.639c-0.717,-1.059 -1.908,-1.698 -3.187,-1.71c-1.279,-0.012 -2.482,0.605 -3.218,1.651l-51.593,73.267c-1.307,1.857 -3.436,2.961 -5.707,2.961l-0.796,-0c-2.606,-0 -4.995,-1.452 -6.196,-3.765c-1.2,-2.313 -1.012,-5.103 0.489,-7.233l53.354,-75.762c3.063,-4.35 8.051,-6.938 13.372,-6.938l0.545,-0c5.415,-0 10.479,2.68 13.524,7.158l51.619,75.906c1.418,2.085 1.567,4.783 0.387,7.012c-1.18,2.229 -3.495,3.623 -6.016,3.623l-1.398,-0c-2.259,-0 -4.37,-1.12 -5.637,-2.991l-49.542,-73.178Z" style="fill:#ffc100;"/><g transform="matrix(25.018384,0,0,25.018384,639.493347,129.411642)"></g><text x="399.542px" y="129.412px" style="font-family:'Outfit-Light', 'Outfit';font-weight:300;font-size:25.018px;fill:#fff;">X WEB3C<tspan x="506.946px " y="129.412px ">O</tspan>LLE<tspan x="568.866px 585.729px " y="129.412px 129.412px ">CT</tspan>IVE</text></svg>